<svg id="svg" xmlns="http://www.w3.org/2000/svg" xmlns:xlink="http://www.w3.org/1999/xlink" width="400" height="400" viewBox="0, 0, 400,400"><g id="svgg"><path id="path0" d="M158.527 41.373 C 154.348 42.388,147.815 47.690,147.066 50.675 C 146.883 51.404,146.514 52.000,146.246 52.000 C 145.978 52.000,145.466 53.093,145.108 54.429 C 144.750 55.764,144.106 57.500,143.676 58.286 C 143.246 59.071,142.089 61.900,141.105 64.571 C 140.120 67.243,138.856 70.457,138.296 71.714 C 137.736 72.971,137.100 74.763,136.883 75.694 C 136.666 76.626,136.016 78.426,135.439 79.694 C 134.862 80.963,134.209 82.964,133.988 84.143 C 133.768 85.321,133.402 86.286,133.175 86.286 C 132.948 86.286,132.282 88.214,131.696 90.571 C 131.109 92.929,130.463 94.857,130.261 94.857 C 130.058 94.857,129.434 97.043,128.874 99.714 C 128.313 102.386,127.671 104.571,127.447 104.571 C 127.224 104.571,126.701 106.371,126.286 108.571 C 125.871 110.771,125.359 112.571,125.149 112.571 C 124.939 112.571,124.286 115.014,123.699 118.000 C 123.112 120.986,122.461 123.429,122.252 123.429 C 122.043 123.429,121.407 126.140,120.839 129.455 C 120.271 132.769,119.593 135.613,119.332 135.774 C 116.284 137.658,121.114 140.571,127.285 140.571 C 127.940 140.571,128.562 140.802,128.667 141.085 C 128.771 141.367,132.457 142.056,136.857 142.616 C 141.257 143.176,144.986 143.809,145.143 144.022 C 145.300 144.235,149.543 144.839,154.571 145.364 C 159.600 145.889,165.771 146.621,168.286 146.990 C 174.445 147.897,234.078 147.888,239.714 146.981 C 241.914 146.626,247.829 145.899,252.857 145.364 C 257.886 144.829,262.129 144.224,262.286 144.019 C 262.443 143.815,266.171 143.189,270.571 142.630 C 274.971 142.071,278.829 141.411,279.143 141.164 C 279.457 140.918,281.000 140.536,282.571 140.317 C 288.385 139.505,288.164 139.688,287.713 136.067 C 287.493 134.301,287.122 132.729,286.888 132.571 C 286.655 132.414,286.022 129.851,285.483 126.875 C 284.944 123.899,284.301 121.199,284.055 120.875 C 283.808 120.551,283.150 118.100,282.593 115.429 C 282.036 112.757,281.377 110.314,281.129 110.000 C 280.882 109.686,280.364 107.821,279.979 105.857 C 279.595 103.893,279.091 102.286,278.861 102.286 C 278.630 102.286,278.115 100.679,277.715 98.714 C 277.315 96.750,276.652 94.371,276.240 93.429 C 275.829 92.486,275.061 90.171,274.534 88.286 C 274.007 86.400,273.390 84.600,273.163 84.286 C 272.935 83.971,272.418 82.493,272.014 81.000 C 271.611 79.507,271.113 78.286,270.909 78.286 C 270.706 78.286,270.075 76.486,269.508 74.286 C 268.942 72.086,268.270 70.286,268.017 70.286 C 267.763 70.286,267.398 69.445,267.205 68.418 C 267.013 67.391,266.390 65.655,265.823 64.561 C 265.255 63.467,264.430 61.414,263.990 60.000 C 263.551 58.586,263.025 57.300,262.823 57.143 C 262.620 56.986,262.017 55.527,261.482 53.901 C 260.947 52.275,260.137 50.637,259.683 50.260 C 259.229 49.883,258.857 49.329,258.857 49.028 C 258.857 47.947,254.210 44.047,251.121 42.536 C 246.071 40.065,231.429 40.763,231.429 43.474 C 231.429 43.764,231.107 44.003,230.714 44.006 C 230.321 44.010,228.314 45.617,226.253 47.578 C 222.822 50.843,217.682 55.430,216.286 56.472 C 215.971 56.707,214.814 57.261,213.714 57.703 C 212.614 58.145,211.579 58.700,211.414 58.936 C 210.294 60.540,196.563 60.540,195.443 58.936 C 195.278 58.700,194.243 58.142,193.143 57.696 C 190.821 56.756,190.029 56.157,185.988 52.286 C 174.326 41.113,168.740 38.893,158.527 41.373 M163.527 67.781 C 163.853 69.944,164.350 72.161,164.632 72.707 C 165.317 74.037,165.281 76.000,164.571 76.000 C 164.257 76.000,164.000 76.887,164.000 77.972 C 164.000 80.266,162.918 85.739,162.299 86.571 C 162.066 86.886,161.418 88.364,160.860 89.857 C 160.302 91.350,159.663 92.571,159.441 92.571 C 159.219 92.571,158.556 93.465,157.968 94.557 C 156.037 98.142,155.237 97.696,155.703 93.294 C 155.928 91.168,156.311 89.171,156.553 88.857 C 156.795 88.543,157.463 85.200,158.037 81.429 C 158.610 77.657,159.251 74.443,159.460 74.286 C 159.670 74.129,160.152 71.853,160.531 69.230 C 161.664 61.404,162.504 60.998,163.527 67.781 M248.267 70.174 C 248.815 73.535,249.456 76.543,249.692 76.857 C 249.927 77.171,250.452 79.871,250.857 82.857 C 251.262 85.843,251.789 88.543,252.027 88.857 C 253.026 90.178,253.333 97.180,252.375 96.812 C 251.878 96.622,251.317 95.977,251.127 95.379 C 250.937 94.781,250.440 93.950,250.021 93.531 C 245.642 89.152,243.314 76.166,245.213 66.711 C 246.163 61.978,247.106 63.046,248.267 70.174 M25.571 135.222 C 25.021 135.382,24.571 135.723,24.571 135.980 C 24.571 136.237,23.946 136.604,23.183 136.796 C 17.530 138.215,13.092 148.337,13.905 157.957 C 14.385 163.628,17.111 170.893,19.239 172.171 C 19.658 172.423,20.000 172.999,20.000 173.452 C 20.000 173.905,20.514 174.597,21.143 174.990 C 21.771 175.382,22.286 176.002,22.286 176.366 C 22.286 177.104,29.609 184.438,31.244 185.339 C 31.817 185.654,32.622 186.382,33.032 186.956 C 33.443 187.530,34.141 188.000,34.584 188.000 C 35.026 188.000,35.664 188.514,36.000 189.143 C 36.336 189.771,36.862 190.286,37.168 190.286 C 37.474 190.286,38.789 191.057,40.091 192.000 C 41.392 192.943,42.804 193.714,43.229 193.714 C 43.653 193.714,44.000 193.932,44.000 194.199 C 44.000 194.465,45.093 195.168,46.429 195.760 C 47.764 196.352,49.176 197.142,49.566 197.515 C 49.955 197.887,51.048 198.362,51.994 198.570 C 52.940 198.778,53.714 199.165,53.714 199.430 C 53.714 199.695,54.679 200.219,55.857 200.595 C 57.036 200.970,58.771 201.632,59.714 202.064 C 64.051 204.054,75.421 206.790,79.538 206.834 C 80.698 206.847,81.806 207.114,82.000 207.429 C 82.565 208.342,100.627 208.138,101.857 207.205 C 103.367 206.059,103.247 205.852,97.566 199.838 C 94.662 196.763,90.614 192.415,88.571 190.176 C 86.529 187.937,84.138 185.324,83.260 184.369 C 82.381 183.414,80.967 181.731,80.117 180.629 C 79.267 179.527,77.906 177.970,77.092 177.170 C 76.279 176.369,74.866 174.686,73.953 173.429 C 73.039 172.171,72.145 171.014,71.965 170.857 C 71.784 170.700,70.628 168.900,69.395 166.857 C 68.162 164.814,67.009 163.014,66.833 162.857 C 66.656 162.700,66.063 161.607,65.515 160.429 C 64.966 159.250,64.324 158.286,64.088 158.286 C 63.852 158.286,63.331 157.380,62.931 156.274 C 62.061 153.869,59.417 149.714,58.756 149.714 C 58.497 149.714,58.286 149.372,58.286 148.954 C 58.286 147.965,52.816 142.440,51.387 141.987 C 50.782 141.795,50.286 141.399,50.286 141.108 C 50.286 140.816,48.293 139.656,45.857 138.530 C 43.421 137.403,40.914 136.190,40.286 135.832 C 39.128 135.174,27.409 134.688,25.571 135.222 M368.429 135.232 C 367.564 135.382,366.857 135.712,366.857 135.967 C 366.857 136.221,366.040 136.592,365.040 136.792 C 361.357 137.529,357.598 140.562,352.667 146.779 C 351.829 147.836,350.565 149.378,349.858 150.207 C 349.151 151.036,348.573 151.889,348.572 152.102 C 348.572 152.315,348.250 152.836,347.857 153.259 C 346.617 154.593,343.429 159.439,343.429 159.988 C 343.429 160.278,343.107 160.720,342.714 160.972 C 342.321 161.223,341.500 162.329,340.889 163.429 C 340.278 164.529,339.507 165.735,339.175 166.109 C 338.843 166.483,337.929 167.727,337.143 168.874 C 336.357 170.021,335.007 171.806,334.143 172.841 C 333.279 173.876,332.571 174.916,332.571 175.153 C 332.571 175.390,331.993 176.177,331.286 176.902 C 329.151 179.093,328.339 180.134,325.977 183.714 C 324.732 185.600,323.393 187.348,323.000 187.600 C 322.607 187.851,322.286 188.303,322.286 188.605 C 322.286 188.906,321.579 190.149,320.714 191.366 C 319.850 192.583,318.757 194.160,318.286 194.869 C 317.814 195.579,316.912 196.830,316.281 197.651 C 309.475 206.501,309.494 206.550,319.571 206.101 C 324.050 205.902,328.614 205.467,329.714 205.135 C 330.814 204.802,333.771 204.132,336.286 203.645 C 338.800 203.158,341.114 202.567,341.429 202.331 C 341.743 202.096,343.736 201.446,345.857 200.888 C 347.979 200.330,349.714 199.693,349.714 199.473 C 349.714 199.253,351.000 198.744,352.571 198.341 C 354.143 197.938,355.429 197.429,355.429 197.208 C 355.429 196.988,356.843 196.327,358.571 195.740 C 360.300 195.152,361.714 194.482,361.714 194.250 C 361.714 194.019,363.000 193.367,364.571 192.802 C 366.143 192.237,367.429 191.568,367.429 191.316 C 367.429 191.063,367.814 190.857,368.286 190.857 C 368.757 190.857,369.601 190.407,370.160 189.857 C 370.720 189.307,372.148 188.405,373.332 187.853 C 374.517 187.300,375.795 186.590,376.172 186.274 C 376.549 185.959,377.886 184.919,379.143 183.964 C 383.184 180.893,384.593 179.749,386.458 178.029 C 389.365 175.347,393.612 169.793,394.381 167.666 C 394.769 166.592,395.271 165.714,395.496 165.714 C 396.109 165.714,397.143 160.334,397.143 157.143 C 397.143 153.789,396.098 148.571,395.426 148.571 C 395.162 148.571,394.665 147.721,394.322 146.681 C 393.357 143.759,387.342 137.902,384.431 137.052 C 383.094 136.661,381.833 136.098,381.629 135.801 C 381.229 135.220,371.029 134.780,368.429 135.232 M116.052 152.719 C 115.773 153.455,115.359 155.783,115.133 157.893 C 114.907 160.004,114.495 161.870,114.218 162.042 C 113.299 162.610,113.615 167.429,114.571 167.429 C 115.043 167.429,115.429 167.645,115.429 167.909 C 115.429 168.173,116.843 168.728,118.571 169.143 C 120.300 169.558,121.714 170.071,121.714 170.284 C 121.714 170.496,123.836 171.147,126.429 171.731 C 129.021 172.314,131.271 172.969,131.429 173.186 C 131.586 173.403,133.257 173.885,135.143 174.256 C 137.029 174.627,139.729 175.290,141.143 175.729 C 142.557 176.168,145.514 176.811,147.714 177.158 C 149.914 177.505,152.229 178.015,152.857 178.291 C 154.163 178.865,166.567 180.571,169.431 180.571 C 170.477 180.571,171.419 180.814,171.524 181.111 C 172.175 182.957,228.950 183.088,230.262 181.247 C 230.432 181.009,234.814 180.351,240.000 179.785 C 245.186 179.219,249.686 178.559,250.000 178.317 C 250.314 178.075,252.629 177.568,255.143 177.190 C 257.657 176.812,260.871 176.146,262.286 175.710 C 263.700 175.274,266.529 174.605,268.571 174.224 C 270.614 173.843,272.414 173.352,272.571 173.132 C 272.729 172.913,274.914 172.284,277.429 171.733 C 279.943 171.183,282.257 170.533,282.571 170.289 C 282.886 170.046,284.043 169.659,285.143 169.430 C 286.243 169.201,288.222 168.528,289.540 167.935 C 290.859 167.342,292.235 166.857,292.598 166.857 C 293.389 166.857,292.749 158.688,291.934 158.381 C 291.656 158.276,291.425 157.248,291.420 156.095 C 291.405 152.438,291.129 152.313,284.916 153.135 C 281.898 153.535,279.429 154.040,279.429 154.258 C 279.429 154.476,275.443 155.136,270.571 155.723 C 265.700 156.311,261.714 156.958,261.714 157.161 C 261.714 157.364,256.379 157.974,249.857 158.517 C 243.336 159.060,236.971 159.808,235.714 160.180 C 232.345 161.178,172.343 161.143,171.343 160.143 C 170.950 159.750,169.607 159.429,168.358 159.429 C 163.866 159.429,145.996 157.561,145.810 157.071 C 145.705 156.796,144.933 156.572,144.095 156.572 C 141.669 156.573,128.886 154.696,128.571 154.293 C 128.414 154.091,126.106 153.599,123.442 153.200 C 120.777 152.800,118.139 152.227,117.579 151.928 C 116.770 151.495,116.456 151.658,116.052 152.719 M338.143 152.978 C 336.964 153.450,336.000 154.040,336.000 154.289 C 336.000 154.539,334.714 155.205,333.143 155.770 C 331.571 156.335,330.286 157.004,330.286 157.256 C 330.286 157.508,329.958 157.714,329.557 157.714 C 329.156 157.714,327.292 158.478,325.414 159.411 C 323.536 160.344,321.697 161.115,321.327 161.125 C 320.956 161.135,320.313 161.465,319.898 161.858 C 319.483 162.252,317.805 163.044,316.171 163.620 C 314.536 164.195,312.232 165.159,311.050 165.762 C 309.868 166.364,308.569 166.857,308.163 166.857 C 307.757 166.857,306.465 167.371,305.292 168.000 C 304.119 168.629,302.763 169.143,302.278 169.143 C 301.794 169.143,300.875 169.509,300.236 169.956 C 299.597 170.403,297.419 171.198,295.395 171.722 C 293.370 172.245,291.457 172.868,291.143 173.105 C 290.829 173.343,289.286 173.879,287.714 174.298 C 286.143 174.716,284.729 175.234,284.571 175.448 C 284.414 175.662,282.229 176.288,279.714 176.838 C 277.200 177.388,274.886 178.041,274.571 178.288 C 274.257 178.535,271.814 179.163,269.143 179.682 C 266.471 180.202,263.771 180.857,263.143 181.138 C 262.514 181.418,260.071 181.950,257.714 182.318 C 255.357 182.687,253.171 183.185,252.857 183.426 C 252.543 183.667,248.557 184.306,244.000 184.847 C 239.443 185.388,235.200 186.054,234.571 186.326 C 229.443 188.548,167.967 188.555,166.286 186.333 C 166.129 186.126,162.143 185.485,157.429 184.910 C 152.714 184.335,148.729 183.670,148.571 183.432 C 148.414 183.194,146.357 182.681,144.000 182.291 C 141.643 181.902,139.457 181.396,139.143 181.166 C 138.829 180.937,136.386 180.293,133.714 179.736 C 131.043 179.179,128.600 178.527,128.286 178.288 C 127.971 178.049,125.721 177.389,123.286 176.822 C 120.850 176.255,118.857 175.622,118.857 175.415 C 118.857 175.209,117.443 174.700,115.714 174.286 C 113.986 173.871,112.571 173.354,112.571 173.136 C 112.571 172.919,110.900 172.289,108.857 171.736 C 106.814 171.183,105.143 170.502,105.143 170.222 C 105.143 169.943,104.770 169.714,104.313 169.714 C 103.527 169.714,97.533 167.238,91.035 164.230 C 89.405 163.475,87.798 162.857,87.464 162.857 C 87.130 162.857,86.857 162.610,86.857 162.309 C 86.857 162.007,85.829 161.452,84.571 161.075 C 83.314 160.699,82.286 160.200,82.286 159.967 C 82.286 159.734,81.000 159.081,79.429 158.516 C 77.857 157.951,76.571 157.321,76.571 157.117 C 76.571 156.912,75.479 156.261,74.143 155.668 C 72.807 155.076,71.374 154.266,70.959 153.867 C 69.611 152.574,67.862 152.947,68.324 154.429 C 68.545 155.136,68.884 155.843,69.077 156.000 C 69.270 156.157,69.942 157.314,70.570 158.571 C 71.198 159.829,72.034 161.197,72.427 161.612 C 72.821 162.028,73.143 162.571,73.143 162.819 C 73.143 163.068,73.918 164.271,74.866 165.493 C 75.814 166.715,77.035 168.303,77.580 169.022 C 80.586 172.990,86.403 180.038,91.061 185.357 C 94.823 189.654,110.915 205.780,114.796 209.143 C 118.827 212.636,118.732 212.557,122.286 215.282 C 124.014 216.607,125.836 218.082,126.334 218.560 C 126.831 219.038,127.402 219.429,127.603 219.429 C 128.019 219.429,133.029 222.798,134.135 223.822 C 134.539 224.196,135.766 224.826,136.863 225.223 C 137.960 225.619,138.857 226.099,138.857 226.289 C 138.857 226.478,140.850 227.646,143.286 228.883 C 145.721 230.120,147.843 231.287,148.000 231.476 C 148.157 231.665,149.571 232.295,151.143 232.876 C 152.714 233.457,154.514 234.244,155.143 234.624 C 155.771 235.005,157.121 235.491,158.143 235.704 C 159.164 235.917,160.000 236.284,160.000 236.521 C 160.000 236.758,161.929 237.432,164.286 238.019 C 166.643 238.606,168.571 239.258,168.571 239.469 C 168.571 239.679,170.179 240.166,172.143 240.551 C 174.107 240.936,175.974 241.464,176.291 241.724 C 179.905 244.691,216.589 245.264,230.571 242.572 C 238.016 241.139,243.139 239.964,244.005 239.491 C 244.479 239.232,246.858 238.550,249.291 237.977 C 251.724 237.403,253.714 236.752,253.714 236.531 C 253.714 236.309,254.679 235.951,255.857 235.736 C 257.036 235.520,258.514 235.017,259.143 234.617 C 259.771 234.217,261.700 233.427,263.429 232.861 C 265.157 232.295,266.700 231.653,266.857 231.435 C 267.014 231.217,268.364 230.577,269.857 230.013 C 271.350 229.449,272.571 228.817,272.571 228.609 C 272.571 228.400,273.536 227.885,274.714 227.463 C 275.893 227.041,276.986 226.510,277.143 226.282 C 277.300 226.054,278.457 225.312,279.714 224.632 C 280.971 223.952,282.669 222.954,283.486 222.412 C 291.066 217.394,293.254 215.616,299.456 209.429 C 305.357 203.541,306.286 202.537,306.286 202.049 C 306.286 201.653,309.056 197.961,310.993 195.776 C 311.540 195.160,312.136 194.187,312.318 193.614 C 312.500 193.040,312.882 192.571,313.167 192.571 C 313.452 192.571,314.091 191.786,314.587 190.827 C 315.083 189.867,315.926 188.600,316.459 188.011 C 317.926 186.389,318.560 185.560,319.753 183.699 C 320.352 182.765,321.167 181.660,321.564 181.245 C 321.961 180.830,322.286 180.300,322.286 180.067 C 322.286 179.834,322.765 179.129,323.351 178.500 C 323.937 177.871,324.728 176.775,325.109 176.064 C 325.489 175.352,326.184 174.340,326.652 173.814 C 328.341 171.914,333.143 165.079,333.143 164.574 C 333.143 164.289,333.464 163.851,333.857 163.600 C 334.563 163.148,335.648 161.624,336.389 160.044 C 336.598 159.596,337.251 158.696,337.840 158.044 C 338.429 157.391,339.251 156.471,339.668 156.000 C 342.036 153.323,341.236 151.738,338.143 152.978 M79.438 261.571 C 79.450 312.133,79.541 312.883,87.039 324.471 C 92.779 333.341,95.534 335.371,124.000 351.715 C 137.043 359.203,151.571 367.564,156.286 370.294 C 180.581 384.366,183.214 385.635,191.336 387.195 C 204.086 389.643,214.165 387.269,230.333 378.007 C 314.610 329.730,312.324 331.441,318.939 311.714 L 320.280 307.714 320.446 263.286 L 320.611 218.857 316.877 218.857 L 313.143 218.857 313.133 261.286 C 313.119 323.594,314.377 320.900,274.571 343.819 C 266.086 348.705,253.100 356.192,245.714 360.457 C 238.329 364.721,228.607 370.328,224.110 372.917 C 212.995 379.315,209.844 380.278,200.000 380.282 C 187.274 380.288,195.346 384.228,126.571 344.439 C 98.261 328.060,95.903 326.162,90.878 315.714 C 86.750 307.130,86.857 308.582,86.857 261.249 L 86.857 218.857 83.143 218.857 L 79.429 218.857 79.438 261.571 M288.715 221.423 C 285.746 222.714,281.248 227.646,279.358 231.685 C 272.894 245.499,282.134 253.720,292.095 243.017 C 302.030 232.341,299.582 216.700,288.715 221.423 M103.385 222.813 C 99.902 226.295,101.711 236.360,106.911 242.433 C 116.093 253.156,126.114 247.918,121.668 234.719 C 118.135 224.232,108.343 217.855,103.385 222.813 M228.533 256.270 C 217.399 262.072,213.651 282.286,223.709 282.286 C 225.313 282.286,226.870 281.771,228.602 280.667 C 242.360 271.903,242.296 249.099,228.533 256.270 M103.385 257.099 C 99.027 261.457,102.860 274.238,110.206 279.842 C 118.598 286.244,125.175 280.583,121.952 269.730 C 118.785 259.067,108.449 252.035,103.385 257.099 M162.813 257.099 C 158.455 261.457,162.289 274.238,169.634 279.842 C 179.327 287.236,186.021 278.269,179.935 266.042 C 175.470 257.069,167.175 252.737,162.813 257.099 M258.248 273.413 C 247.231 279.153,243.353 299.429,253.273 299.429 C 260.147 299.429,267.976 289.955,268.481 281.028 C 268.930 273.072,264.800 269.999,258.248 273.413 M288.286 290.487 C 277.056 295.728,272.868 316.589,283.051 316.566 C 290.068 316.550,297.566 307.558,298.164 298.441 C 298.699 290.271,295.048 287.331,288.286 290.487 M103.314 291.455 C 99.737 295.033,101.934 305.688,107.495 311.720 C 116.450 321.435,125.666 316.524,121.952 304.016 C 118.761 293.270,108.449 286.320,103.314 291.455 M163.032 291.093 C 160.693 293.105,160.649 300.909,162.949 305.814 C 167.933 316.446,179.172 320.561,181.765 312.705 C 185.426 301.610,170.639 284.550,163.032 291.093 M230.142 324.222 C 220.856 327.630,214.251 343.441,219.726 349.156 C 224.028 353.646,232.146 349.361,236.644 340.226 C 241.617 330.125,238.041 321.323,230.142 324.222 M163.936 324.857 C 158.969 327.556,160.797 339.423,167.247 346.352 C 177.193 357.038,186.547 348.954,180.122 335.224 C 176.147 326.731,168.959 322.127,163.936 324.857 " stroke="none" fill="#000000" fill-rule="evenodd"></path></g></svg>